<?xml version="1.0" encoding="UTF-8"?>
<svg enable-background="new 0 0 1718.056 1674.534" version="1.1" viewBox="0 0 1718.056 1674.534" xmlns="http://www.w3.org/2000/svg">
 <polygon points="1670.8 837.24 1668.9 835.17 1669.4 830.96 1670.3 828.16 1667.8 827.05 1667.9 824.3 1667.6 823.28 1667 823.28 1667 823.28 1667.6 823.28 1667.3 821.9 1662.5 820.31 1661.2 817.87 1659.4 815.38 1660.2 812.98 1661.3 809.61 1663.8 806.95 1661.2 806.86 1659.6 802.82 1656.7 799.72 1658.2 796.56 1654.6 794.52 1651.2 792.26 1651.7 789.73 1654.4 788.09 1655.5 785.43 1652.3 784.85 1649.8 783.96 1646.4 783.47 1644.9 781.12 1642.5 779.35 1642.5 776.91 1640.4 773.84 1640.1 771.54 1642.7 769.27 1642.8 766.66 1642.2 764.08 1643.3 761.77 1644.4 759.38 1643.3 755.25 1641.7 752.41 1640.2 750.01 1641.7 747.48 1640.4 744.78 1638.2 742.16 1636 739.63 1635.8 737.1 1634.6 734.7 1634.6 732.26 1632.1 731.38 1630.8 728.67 1628.3 728.49 1627.6 726.14 1625.3 724.99 1622.7 723.57 1620.4 719.44 1619 716.51 1616.9 713.98 1614.5 712.65 1614.5 708.83 1612.7 478.34 1611 475.28 1608.7 476.17 1605.7 477.41 1603.4 479.54 1602.7 476.83 1600.2 476.08 1597.8 473.81 1595.2 475.28 1592.8 475.99 1595.6 476.43 1595.8 478.96 1593.1 477.98 1590.8 479.67 1588.5 478.87 1589.3 476.43 1589.8 474.04 1587.3 475.32 1585.8 478.25 1583.4 478.47 1584.6 475.72 1582.2 476.52 1580.8 479.85 1578.2 479.14 1575.7 478.38 1574.6 480.78 1572.1 480.87 1569.6 478.56 1570.6 476.26 1568.1 477.05 1566 473.81 1563.4 472.75 1561.1 471.37 1562.2 468.8 1563.7 466.05 1561.2 466.85 1558.3 468.71 1555.8 468.98 1553 469.29 1554.9 466.85 1552.6 466.71 1548.7 466.89 1549.8 463.92 1546.4 464.94 1549.6 462.19 1547.2 462.5 1545.6 459.84 1545.8 462.41 1543.3 461.97 1540.9 461.43 1538.6 463.08 1536.1 461.7 1539.1 461.43 1540 458.02 1537.4 458.64 1534.2 459.79 1530 459.17 1531.5 456.51 1528.1 455.75 1530.3 458.24 1527.8 458.73 1525.5 456.15 1526.3 453.67 1523.7 453.4 1521.2 452.11 1521.8 450.92 1518.2 452.16 1518.2 449.81 1515.9 448.74 1516.3 451.32 1513.6 451.54 1510.4 450.07 1511.5 447.59 1509 447.68 1506.7 446.48 1504.5 443.9 1505.4 441.2 1503.9 438.31 1504.3 441.15 1501.3 441.2 1501.7 437.91 1499.2 436.89 1498.1 433.16 1495.7 434.58 1492.8 433.79 1488.6 432.85 1487.9 430.19 1487.2 427.17 1484.9 426.69 1484.4 430.46 1482.2 428.11 1483.5 425.36 1480.9 426.64 1478.3 425.04 1479.6 422.74 1477.3 422.25 1473.3 420.43 1469 418.65 1465.6 419.98 1463.4 422.29 1463.6 426.42 1461.9 429.26 1459.5 426.15 1459.9 428.9 1457.9 431.52 1455.4 430.19 1452.5 431.26 1449.4 432.41 1446.7 432.14 1444.1 432.77 1441.2 431.88 1438 431.83 1436.6 429.44 1434.2 430.95 1431.4 430.77 1431 427.8 1428.1 430.24 1425.8 428.99 1426 425.71 1425 422.91 1422.5 422.52 1420 421.1 1417.6 423.31 1415.6 426.73 1412.8 425.98 1409.7 428.28 1407.1 429.57 1404.6 428.82 1401.5 427.93 1399.4 430.28 1400.4 432.68 1399.9 435.03 1396.8 434.81 1394.4 433.21 1392 434.5 1390.8 437.25 1388.5 436.18 1386.2 434.76 1382.7 432.32 1378.1 429.88 1376.1 433.61 1372.8 434.14 1370.3 433.16 1368.3 435.83 1365.8 434.14 1363.5 436.98 1360.5 436 1356.9 435.61 1357.2 437.87 1353.7 436.45 1350.9 436.89 1349.7 439.64 1347.2 440.93 1349.6 440.71 1349.3 444.48 1347.3 448.39 1344.9 449.58 1341 450.25 1337.7 448.21 1334.8 446.88 1332.4 448.25 1331.3 450.87 1331.3 453.98 1330.6 456.51 1328 458.5 1325.1 459.35 1323.8 456.64 1322.7 454.33 1320.2 451.71 1317.9 448.79 1315.6 445.59 1313.3 445.37 1310.9 446.08 1307 446.52 1305 444.22 1304.8 441.42 1303.1 438.84 1300.7 439.56 1298 439.6 1295.5 437.82 1291 434.58 1294.9 431.17 1295.5 428.11 1291 428.28 1285.4 425.62 1284.1 429.84 1284 433.03 1281.5 437.2 1278.9 437.91 1276.3 438.58 1273.2 438 1272.4 435.21 1270.3 432.1 1268 431.57 1264.6 432.19 1264.4 434.5 1262 434.98 1259.2 432.23 1257.6 427.97 1257.5 425.44 1256.9 421.63 1254 418.56 1250.6 420.74 1248 422.07 1245.2 420.16 1245.2 422.65 1246.4 426.73 1246.4 429.17 1244.9 431.79 1241.9 435.47 1238.8 436.54 1236.2 433.39 1233.6 436.23 1238.1 437.51 1238.5 439.82 1233 441.82 1232.7 444.26 1233.9 448.21 1233.6 451.27 1231.1 454.29 1227.8 454.73 1225.2 453.84 1222.9 451.63 1222 449.27 1221.1 446.97 1220.2 444.66 1218.8 442.22 1220 437.82 1223.7 436.4 1223.3 433.52 1222.5 430.59 1221.2 427.22 1218.8 425.31 1216.2 425.27 1213.9 426.95 1213.4 430.37 1211.2 433.48 1208.5 431.92 1205.6 429.39 1205.2 432.68 1202.7 433.03 1202.5 430.59 1202.1 433.34 1199.7 437.96 1196.2 439.51 1193.7 439.64 1191.1 439.64 1187.9 438.18 1186.8 435.03 1188 431.79 1188.1 429.44 1186.5 426.69 1182 424.51 1177.7 426.6 1173.6 427.22 1170.8 426.86 1169.8 424.42 1170.1 421.85 1170.8 419.41 1168.3 417.23 1165.2 415.24 1160.6 413.73 1157.8 414.88 1156.4 417.94 1154.3 420.78 1151.8 421.85 1149.1 422.82 1148.5 425.44 1146.2 425.44 1146.9 428.28 1144.2 429.66 1141.8 432.1 1139 433.92 1136.4 434.98 1133.4 433.96 1130.7 432.37 1127.7 430.72 1124.8 430.64 1122.2 428.99 1122.3 425.58 1124.8 425.27 1125 421.72 1122.7 421.01 1124.8 418.65 1125.3 413.91 1123 411.64 1120.6 412.62 1116 413.46 1112.5 413.06 1109.1 412.09 1108.3 409.56 1106.2 407.2 1108.5 405.83 1105.1 403.08 1104.3 400.24 1106.4 397.71 1107.9 394.91 1106.5 392.16 1105.8 389.32 1102.3 390.74 1098.1 395.31 1093.3 394.29 1090.4 392.25 1087.4 393 1084.4 392.83 1081.9 392.25 1078.7 389.76 1073.4 389.06 1071.1 391.63 1069.6 394.25 1068.2 398.55 1065.8 399.62 1063.3 401.44 1060.5 402.59 1057.6 401.92 1054.8 399.53 1052.3 396.33 1049.4 392.47 1046.4 389.72 1042.3 388.97 1037.4 388.7 1033.9 391.63 1031.5 392.07 1028.9 392.16 1026.1 393.62 1023.7 391.98 1019.9 391.01 1017.5 388.7 1014.7 388.97 1010.8 389.99 1008.4 387.19 1005.7 385.82 1003.3 383.55 998.51 382.26 996.74 379.87 994.07 381.02 991.28 381.82 988.79 382.71 986.44 381.42 983.2 381.16 980.8 381.91 978.5 381.95 978.01 379.51 975.12 381.33 970.6 380.27 970.6 377.96 969.8 375.03 969.75 372.5 968.42 369.88 968.11 367.58 968.6 364.56 968.47 361.67 965.94 361.76 965.05 359.41 962.48 356.57 960.04 354.75 960.3 352.31 957.51 350.14 957.51 350.14 957.15 350.22 957.15 350.22 954.36 351.11 951.78 347.92 949.43 344.06 946.68 343.88 945.17 347.65 945.61 350.4 944.86 352.75 942.55 355.77 939.53 356.75 937.09 355.42 935.1 353.11 931.9 351.07 929.42 350.27 926.62 350.45 924 349.82 921.25 351.29 921.21 353.73 919.3 356.22 916.28 356.39 913.26 355.06 910.38 355.77 907.4 355.68 904.92 353.24 903.41 350.85 899.99 349.25 897.69 346.23 895.07 344.32 892.32 340.33 890.14 337.4 887.61 335.67 885.66 333.27 883.66 330.39 881.31 328.66 877.45 325.91 875.01 325.64 872.79 328.08 869.2 328.35 869.2 37.68 807.29 37.68 807.29 37.325 799.42 37.325 799.42 837.24" fill="#fff"/>
 <polygon points="1197.5 1634.4 1199.6 1632 1198.7 1629.2 1197.6 1626.9 1200.1 1624.9 1202.8 1623.9 1205.1 1623.1 1207.5 1622.8 1209.9 1622.5 1209.9 1620 1213.9 1620.4 1216.4 1619 1218.8 1619.1 1221.1 1619 1223.6 1618.8 1226.1 1619.5 1226.2 1617.2 1233.1 1616.7 1232.8 1606.4 1233.4 1602.9 1232.7 1599.6 1231 1597.1 1230.7 1591 1229.8 1583.1 1228.9 1575.6 1225 1556.5 1221.5 1541.4 1217.8 1526.3 1216.4 1523.1 1213.1 1513.5 1209.2 1498.2 1206.9 1487.6 1205.3 1475.8 1204.4 1465.1 1204.1 1461.2 1204.1 1455.1 1204.6 1446.3 1205.3 1437.3 1205.8 1433.3 1207.4 1425.2 1208.5 1421.1 1212.4 1406.4 1213.2 1403.9 1219.6 1387.7 1223.9 1377.5 1228.9 1366.7 1238.3 1350.2 1243.4 1344.7 1246.5 1342.2 1249.6 1331.4 1252.2 1327.5 1255.9 1322.6 1260.2 1317.2 1264 1312.7 1276.3 1300.8 1289.5 1289.4 1295 1285.3 1303.2 1279.6 1316.4 1272.4 1320.2 1270.8 1322.7 1269.1 1326.5 1263.8 1327.3 1261.1 1329.5 1258.3 1332.8 1257.5 1336.2 1254.5 1337.3 1251.5 1340.2 1249.5 1346.8 1244.9 1360.1 1237.7 1369.6 1232.9 1385.3 1225.3 1397.4 1218.9 1400.9 1216.9 1427.9 1200.2 1433 1197.9 1442.2 1191.8 1444.5 1191.8 1447.5 1191.2 1450.5 1190 1454.4 1187.5 1455.9 1185 1458.3 1181.9 1463.1 1178.8 1466.3 1176.1 1468.9 1173.7 1472.1 1170.4 1479 1162.2 1481.4 1160.5 1483.6 1155.5 1483.9 1152.4 1494.7 1147 1499.3 1143.9 1505.7 1138.8 1514.7 1132.9 1523.2 1127.9 1527.1 1123.7 1530.6 1120.3 1533.2 1121.1 1536.5 1120.5 1539.5 1117.6 1541.7 1112.4 1541.2 1108.9 1538.5 1105.2 1541.6 1103 1557.3 1094.8 1567.4 1090.1 1573.5 1087.6 1604.2 1073.3 1615.6 1068.9 1631.6 1068.9 1635.4 1069.4 1637.6 1071.9 1640.3 1073.1 1643 1073.2 1641.3 1063.7 1640.2 1059.1 1635.6 1052 1633.1 1049.4 1632.5 1046.9 1629 1044.2 1628.8 1041.2 1630.6 1038.6 1634.1 1035.8 1637.9 1033 1641 1028.5 1642.7 1024.9 1643.1 1022.4 1644.4 1018.3 1646.3 1014.3 1648.9 1012.1 1652.2 1009.4 1652.7 1007 1657 1002.7 1654.4 1000.3 1655.4 997.55 1657.2 994.18 1658.2 991.34 1657 988.45 1656 985.66 1655.5 982.99 1654.8 980.29 1655.9 977.89 1656.2 975.4 1656.3 972.92 1656.7 970.48 1655 968.17 1652.2 966.53 1650.3 963.73 1649.9 961.25 1651 958.63 1650.4 955.79 1651.6 953.13 1653.8 950.6 1654.1 948.02 1656.8 947.45 1657.1 945.14 1655.8 942.12 1656.1 939.68 1655.9 937.06 1655 934.49 1652.6 932 1653.4 929.7 1653.9 926.5 1656.9 924.33 1659.2 923.79 1659.5 921.35 1659.2 918.82 1659.5 916.43 1661.1 913.9 1663.4 912.12 1665.9 910.92 1667.3 908.48 1667.8 905.73 1668.7 903.07 1668.8 900.63 1669.8 898.28 1672 895.79 1673 892.38 1674.4 889.98 1675.7 887.32 1675.2 884.79 1674.3 882.3 1673.3 879.46 1675.6 877.15 1676.9 874.58 1679.1 871.96 1678.5 869.39 1676.1 867.52 1673.7 866.15 1673.2 863.8 1673.4 861.13 1676.2 861.04 1679.6 859.58 1679.9 856.3 1679.7 853.99 1678.3 851.42 1675.8 850.75 1674.4 848.4 1676.6 845.91 1677.6 843.61 1676.6 841.08 1677.6 838.06 1677.8 837.44 1671.6 837.44 1671.2 837.7 1671 837.44 1670.8 837.24 799.42 837.24 799.42 1189.5 800.9 1190.3 802.54 1192.8 802.14 1196 802.54 1198.8 804.89 1200.2 805.87 1202.9 805.87 1205.2 805.43 1209.1 807.2 1213.9 807.29 1214 809.91 1215.6 813.5 1217.1 813.15 1220.1 815.46 1223.2 819.54 1226.4 817.81 1230.1 819.18 1233.1 820.69 1235.5 823.93 1236.4 826.9 1237.4 826.2 1239.8 823.27 1241.4 825.35 1243.8 826.99 1246.3 827.08 1248.6 825.53 1252.3 826.51 1255 829.57 1259.1 831.25 1262.6 833.16 1265.2 833.3 1267.5 833.83 1272.1 835.78 1275.2 838.44 1277.6 842.04 1278.7 842.48 1281.9 843.24 1284.2 846.03 1284.8 849.18 1287.5 851.58 1287.5 854.29 1289.4 858.72 1291 860.28 1294.6 862.32 1297.5 863.47 1300.9 866.53 1302.4 867.24 1304.7 867.64 1307.2 868.49 1310 869.68 1312.5 872.08 1314.3 875.5 1315.2 877.72 1317.6 876.87 1320.3 878.52 1323.6 881.76 1325.9 882.51 1328.8 881.22 1331.4 882.55 1334.3 884.77 1337 885.04 1340.8 885.53 1343.6 888.68 1345.9 890.14 1348.3 892.63 1346.7 893.56 1348.9 894.71 1352.4 897.95 1352.9 899.55 1355.9 902.7 1359.9 904.08 1362.8 906.87 1364.4 909.4 1363.9 912.02 1365.6 911.93 1368.1 914.42 1368.7 917.3 1367.1 920.05 1366.9 922.09 1370 921.96 1372.4 924.93 1370.6 927.28 1374 929.73 1376.9 929.46 1379.8 929.02 1382.5 928.62 1385 928.53 1388.2 931.5 1387.7 934.12 1389.5 933.59 1393.2 932.34 1396.9 933.36 1401 932.7 1403.9 931.9 1406.8 930.84 1409.6 930.66 1412.7 927.86 1414.2 929.15 1417.2 931.68 1416.9 933.36 1419.3 934.16 1423.8 937.76 1423.2 939.13 1427.2 938.96 1430 940.2 1432.5 941 1436.3 939.58 1439.6 940.38 1442.1 940.15 1444.9 940.51 1448.5 939.98 1451 937.98 1454.6 938.82 1457.8 939.44 1460.6 942.37 1460.2 943.84 1463.1 947.26 1466.1 945.08 1468.6 945.79 1471.1 949.16 1473.4 952.14 1474.4 954.09 1476.8 954.71 1482.9 957.15 1483 957.15 1483 957.42 1483 960.74 1486.3 961.54 1490.4 964.03 1494.5 964.34 1500.9 968.2 1504.1 968.07 1508.7 969.27 1514.3 972.06 1519.7 973.39 1528.8 973.48 1532.4 976.37 1533.6 979.52 1535.3 981.25 1537.7 982.4 1540.5 982.09 1543.3 981.56 1545.6 980.14 1547.9 981.87 1550.2 984.09 1553.3 987.5 1552.6 990.34 1550.9 993.9 1553.8 997.58 1552.6 1e3 1553.6 999.84 1556.2 1002.5 1556.9 1003.9 1554 1005.5 1557 1008.2 1559.2 1010.6 1558.5 1013.9 1559 1016.3 1557.2 1018.9 1557.7 1019.9 1560.4 1020.7 1563 1023 1564.1 1025.7 1563.3 1027 1565.7 1026.6 1568.7 1029.5 1569.6 1031.9 1570.7 1029.4 1572 1031.8 1572.9 1034.6 1574.3 1034.8 1576.6 1037.6 1577.4 1040.4 1575 1043.3 1574.8 1045.9 1574.1 1048.5 1576.6 1049.5 1578.9 1051.3 1576.3 1052.5 1579 1055 1578.7 1056.4 1581.5 1059.5 1582.5 1059.2 1579.9 1061.7 1578.9 1064.4 1579.9 1063.9 1582.7 1066.3 1584.1 1069.1 1587 1071.9 1589.3 1074.7 1588.9 1077.1 1589.8 1077.5 1592.2 1079.3 1595.1 1082.2 1597.1 1083.1 1594.7 1086.2 1595.2 1083.6 1597.5 1086.1 1599.1 1088.3 1602 1092.8 1602.4 1095.4 1604.8 1097.9 1602.1 1099.5 1604.8 1101.9 1604.6 1104.5 1603.2 1107.6 1604 1110.1 1603.8 1109.5 1606.5 1111.8 1605.9 1114.6 1606.6 1115.4 1603.5 1117.9 1604.4 1120.2 1604 1122.5 1604.1 1125.6 1603.5 1128 1603.3 1130.5 1604.4 1133.6 1602.8 1136.7 1602.3 1138.3 1605 1141.2 1604.4 1143.5 1604.1 1145.8 1605.4 1146.6 1607.7 1148.9 1606.2 1149.5 1608.9 1152.6 1608 1156.4 1607.4 1158.8 1608.8 1161.7 1607.1 1161 1609.9 1164.4 1609.1 1163.6 1611.7 1166.1 1611.9 1165.2 1614.3 1167.6 1616.1 1170.2 1618.6 1172.7 1619.8 1171.6 1622.1 1175.8 1622.4 1178.2 1624.9 1178.6 1627.4 1179.3 1629.9 1182.2 1628 1182.9 1630.7 1185.2 1631.3 1187.6 1630.2 1188.9 1632.7 1190 1635.4 1193.5 1634.6 1195.3 1637.2 1197.8 1636.8" fill="#BF0A30"/>
 <polygon points="799.42 37.325 747.03 37.325 731.76 37.458 603.78 37.237 603.78 37.237 488.71 37.281 488.84 112.37 488.67 138.59 488.8 143.61 488.53 243.63 488.62 260.27 488.44 365.71 488.53 409.38 485.87 562.48 485.92 712.47 212.42 712.52 102.99 712.16 41.173 713.32 38.82 716.02 41.217 717.84 41.705 720.19 40.596 722.77 42.149 724.54 39.397 726.1 38.244 728.62 39.264 731.38 40.374 734.13 43.391 736.61 45.122 739.23 48.273 740.87 51.645 742.78 52.577 745.31 54.885 748.37 57.459 750.28 60.166 748.68 63.805 749.04 66.689 749.93 71.393 753.3 72.103 755.65 74.943 758.05 76.851 763.02 80.712 769.23 81.555 772.02 82.576 774.47 83.552 778.24 87.812 781.3 90.564 787.42 91.318 790.62 93.626 793.19 96.688 794.3 99.04 796.96 102.15 798.78 105.08 799.23 109.25 802.91 118.08 803.71 124.47 807.84 125.22 811.65 127.22 815.65 130.77 816.54 132.32 819.06 135.03 819.24 137.38 822.84 139.16 825.41 141.38 828.07 144.39 832.24 146.21 835.17 148.3 837.97 150.96 837.88 154.91 842.05 162.9 845.6 165.34 847.82 168.93 851.42 170.58 854.03 171.28 857.23 172.62 860.38 173.28 863 175.86 864.9 178.7 866.64 180.96 867.44 182.91 871.21 185.62 873.69 188.15 875.6 190.5 877.55 193.7 879.2 194.36 881.9 193.52 884.39 196.27 885.01 198.75 885.72 201.59 887.58 203.99 888.42 205.14 890.91 207.58 889.05 209.27 891.53 211.62 893.44 214.42 892.2 216.86 891.71 217.92 894.64 220.5 894.9 221.7 897.39 224.05 897.57 224.76 899.87 227.55 900.05 229.91 901.07 230.84 903.65 232.84 906.13 235.23 907.06 236.25 909.5 238.65 909.28 241.13 910.39 243.53 910.48 245.48 913.9 245.79 916.2 246.24 919.31 248.81 921 251.25 922.2 253.56 922.82 255.29 925.26 256.8 928.28 257.82 930.58 258.71 933.29 259.77 935.95 260.44 938.44 260.13 940.79 260.08 943.72 261.24 946.65 261.68 948.96 261.64 951.26 262.08 954.81 264.96 956.68 267.36 957.61 265.94 960.05 267.8 962.62 270.2 964.35 271.35 966.75 273.62 967.55 274.02 970.43 274.95 973.27 278.28 974.65 280.54 977.4 280.98 980.68 281.78 983.3 282.8 986.19 282.85 988.67 282.58 991.47 281.83 993.78 282.32 996.3 282.89 999.5 282.4 1002.1 280.85 1004.4 281.21 1007.3 282.14 1009.8 282.49 1012.1 283.07 1014.5 283.11 1017 284.67 1019.4 283.65 1022 283.82 1024.4 286.44 1027.5 288 1030.1 290.04 1033 292.08 1035.7 291.37 1038.1 293.68 1040.2 294.96 1042.9 296.96 1045.4 298.02 1047.9 298.82 1050.6 300.16 1053.1 300.64 1055.6 300.82 1058.2 300.82 1060.6 303.13 1062.5 304.24 1064.8 305.44 1067.1 307.88 1068 310.27 1069.8 312.31 1072.1 319.59 1078.7 321.14 1081.2 323.54 1082.3 327.49 1084.3 329.89 1084.2 332.33 1084.7 336.28 1086.7 339.21 1088 340 1090.9 342.71 1090.6 342.31 1092.9 342.58 1095.4 346.22 1098.7 347.15 1101.1 349.28 1103.6 351.63 1105.2 354.16 1107.1 356.65 1108.4 359.4 1110.9 361.79 1112.7 364.19 1114.7 366.85 1115.9 369.92 1117.1 373.29 1117.9 375.91 1118.4 379.01 1119.9 381.45 1119.5 383.85 1119.9 387.09 1120.4 389.44 1121.8 392.19 1121.6 393.97 1123.9 396.58 1124.9 396.32 1127.3 396.76 1129.6 399.51 1128.9 401.07 1131.3 402.8 1133.7 405.46 1135.1 407.81 1135.9 410.25 1136.6 412.38 1139 414.69 1138.9 417.4 1137.9 419.88 1140.2 423.21 1139.6 425.83 1140.9 428.31 1142.1 429.82 1144.5 432.35 1147 435.19 1149.9 435.02 1152.7 437.59 1152.3 439.72 1154.9 441.98 1157 444.56 1157.8 447.09 1159.1 449.75 1159.3 450.46 1156.6 453.03 1157.8 453.12 1160.2 455.61 1159.3 455.34 1162.2 458.05 1162.5 459.02 1166.1 460.53 1163.2 464.44 1165 467.1 1164.5 469.98 1165.1 473.44 1166.8 475.89 1166 479.35 1165 479.3 1162.6 481.7 1158.7 480.81 1156 483.25 1153.7 484.32 1151.3 485.92 1149 489.07 1148.1 489.51 1145.5 492.13 1143.1 492.97 1140.4 494.48 1138.1 496.34 1134.8 499.32 1135.8 501.67 1134.4 504.11 1132.8 506.55 1131.3 509.12 1130.6 510.41 1128.1 508.02 1125.8 505.66 1123.7 506.11 1121.3 507.97 1118.7 507.35 1116.3 508.37 1113.8 509.88 1109.8 513.3 1108 514.85 1104.5 517.29 1102.3 515.6 1100 515.12 1097.5 516 1094.8 516.94 1092.1 518.89 1089.7 518.04 1087.1 519.33 1083.2 521.68 1081.1 521.77 1078.5 523.72 1075.7 523.32 1073 525.68 1073.7 526.65 1071.3 526.25 1067.7 528.65 1065 530.42 1062.6 531.53 1059.7 532.73 1056.6 533.75 1053.4 536.46 1052.3 540.32 1052.4 542.76 1050.5 545.34 1050.3 548.66 1047.5 549.68 1050.4 552.21 1049.4 554.83 1047.8 554.3 1045.1 556.78 1045.4 560.29 1045.5 563.09 1046 565.79 1046.7 568.46 1047.9 570.9 1046.9 571.87 1044.1 572.36 1041.5 573.74 1037.3 575.24 1034.1 577.55 1033.2 579.99 1031.1 583.63 1033 585.94 1032.5 588.25 1033 590.07 1035.4 593.22 1036.2 596.24 1035.8 596.55 1038.7 599.61 1040.8 602.09 1042.4 604.58 1043.8 607.2 1044 609.9 1044.7 612.83 1044.9 615.5 1042.4 618.29 1042.4 620.64 1043.1 623.22 1040.7 624.81 1043.3 627.12 1042.7 627.92 1045.3 630.14 1042.9 634.62 1043.6 637.11 1041.6 639.37 1043.7 641.72 1043.9 640.88 1041.6 643.28 1042.8 644.16 1045.7 647.36 1044.3 650.46 1046 653.04 1046.8 655.48 1048.4 658.9 1048.5 661.38 1047 663.51 1049.5 665.73 1047 668.66 1046.5 672.56 1046.6 673.14 1042.9 676.38 1041 676.87 1044.5 677.8 1048.7 681.22 1048 684.23 1045 687.12 1044.5 687.21 1046.8 689.34 1050 694.26 1048.3 692.18 1050.7 694.48 1052.5 694.48 1055.5 697.64 1058.7 698.21 1062 700.88 1063.3 706.29 1065.1 706.47 1067.4 704.96 1072.3 705.14 1074.8 707.75 1076.9 709.4 1074.1 709.44 1071.7 710.5 1068.2 712.81 1069 712.59 1072 712.81 1079.2 711.48 1082.1 712.28 1084.6 715.7 1084.3 720.05 1084.6 722.66 1087.1 725.15 1091.1 727.9 1090.9 731.18 1092.1 734.51 1093 737.04 1095.5 738.73 1098.2 739.31 1101 741.75 1104 742.37 1106.5 744.72 1108.1 747.69 1110 750.53 1110.6 753.11 1113.6 756.08 1115.9 758.92 1117.8 761.1 1121.3 764.29 1123.2 767.13 1124.6 769.48 1125.7 770.99 1128.5 772.37 1131.1 773.3 1133.4 772.19 1136.7 774.23 1139.1 776.94 1141.8 780.44 1144.7 783.68 1146.1 785.37 1148.9 786.17 1151.5 786.3 1155.5 786.66 1158 787.45 1160.4 788.03 1163.2 788.12 1166.1 788.16 1168.6 787.76 1171.1 789.32 1173.5 789.63 1175.9 792.42 1177.4 795.13 1179.3 795.35 1181.8 797.57 1185.4 797.88 1188.8 799.42 1189.5 799.42 837.24" fill="#002868"/>
 <polygon points="773.46 709.03 672.89 709.03 641.82 613.39 610.74 709.03 510.17 709.03 591.53 768.15 560.45 863.79 641.82 804.68 723.18 863.79 692.1 768.15" fill="#fff"/>
 <g fill="none" stroke="#000" stroke-miterlimit="10" stroke-width="1.4201">
  <polygon points="1523.1 448.48 1521.8 450.92 1522.2 450.78"/>
  <polygon points="1676.2 861.05 1679.6 859.58 1679.9 856.3 1679.7 853.99 1678.3 851.42 1675.8 850.75 1674.4 848.4 1676.6 845.91 1677.6 843.61 1676.6 841.08 1677.6 838.06 1677.8 837.44 1671.6 837.44 1671.2 837.7 1671 837.44 1668.9 835.17 1669.4 830.96 1670.3 828.16 1667.8 827.05 1667.9 824.3 1667.6 823.28 1667 823.28 1667 823.28 1667.6 823.28 1667.3 821.9 1662.5 820.31 1661.2 817.87 1659.4 815.38 1660.2 812.98 1661.3 809.61 1663.8 806.95 1661.2 806.86 1659.6 802.82 1656.7 799.72 1658.2 796.56 1654.6 794.52 1651.2 792.26 1651.7 789.73 1654.4 788.09 1655.5 785.43 1652.3 784.85 1649.8 783.96 1646.4 783.47 1644.9 781.12 1642.5 779.35 1642.5 776.91 1640.4 773.84 1640.1 771.54 1642.7 769.27 1642.8 766.66 1642.2 764.08 1643.3 761.77 1644.4 759.38 1643.3 755.25 1641.7 752.41 1640.2 750.01 1641.7 747.48 1640.4 744.78 1638.2 742.16 1636 739.63 1635.8 737.1 1634.6 734.7 1634.6 732.26 1632.1 731.38 1630.8 728.67 1628.3 728.49 1627.6 726.14 1625.3 724.99 1622.7 723.57 1620.4 719.44 1619 716.51 1616.9 713.98 1614.5 712.65 1614.5 708.83 1612.7 478.34 1611 475.28 1608.7 476.17 1605.7 477.41 1603.4 479.54 1602.7 476.83 1600.2 476.08 1597.8 473.81 1595.2 475.28 1592.8 475.99 1595.6 476.43 1595.8 478.96 1593.1 477.98 1590.8 479.67 1588.5 478.87 1589.3 476.43 1589.8 474.04 1587.3 475.32 1585.8 478.25 1583.4 478.47 1584.6 475.72 1582.2 476.52 1580.8 479.85 1578.2 479.14 1575.7 478.38 1574.6 480.78 1572.1 480.87 1569.6 478.56 1570.6 476.26 1568.1 477.05 1566 473.81 1563.4 472.75 1561.1 471.37 1562.2 468.8 1563.7 466.05 1561.2 466.85 1558.3 468.71 1555.8 468.98 1553 469.29 1554.9 466.85 1552.6 466.71 1548.7 466.89 1549.8 463.92 1546.4 464.94 1549.6 462.19 1547.2 462.5 1545.6 459.84 1545.8 462.41 1543.3 461.97 1540.9 461.43 1538.6 463.08 1536.1 461.7 1539.1 461.43 1540 458.02 1537.4 458.64 1534.2 459.79 1530 459.17 1531.5 456.51 1528.1 455.75 1530.3 458.24 1527.8 458.73 1525.5 456.15 1526.3 453.67 1523.7 453.4 1521.2 452.11 1521.8 450.92 1518.2 452.16 1518.2 449.81 1515.9 448.74 1516.3 451.32 1513.6 451.54 1510.4 450.07 1511.5 447.59 1509 447.68 1506.7 446.48 1504.5 443.9 1505.4 441.2 1503.9 438.31 1504.3 441.15 1501.3 441.2 1501.7 437.91 1499.2 436.89 1498.1 433.16 1495.7 434.58 1492.8 433.79 1488.6 432.85 1487.9 430.19 1487.2 427.17 1484.9 426.69 1484.4 430.46 1482.2 428.11 1483.5 425.36 1480.9 426.64 1478.3 425.04 1479.6 422.74 1477.3 422.25 1473.3 420.43 1469 418.65 1465.6 419.98 1463.4 422.29 1463.6 426.42 1461.9 429.26 1459.5 426.15 1459.9 428.9 1457.9 431.52 1455.4 430.19 1452.5 431.26 1449.4 432.41 1446.7 432.14 1444.1 432.77 1441.2 431.88 1438 431.83 1436.6 429.44 1434.2 430.95 1431.4 430.77 1431 427.8 1428.1 430.24 1425.8 428.99 1426 425.71 1425 422.91 1422.5 422.52 1420 421.1 1417.6 423.31 1415.6 426.73 1412.8 425.98 1409.7 428.28 1407.1 429.57 1404.6 428.82 1401.5 427.93 1399.4 430.28 1400.4 432.68 1399.9 435.03 1396.8 434.81 1394.4 433.21 1392 434.5 1390.8 437.25 1388.5 436.18 1386.2 434.76 1382.7 432.32 1378.1 429.88 1376.1 433.61 1372.8 434.14 1370.3 433.16 1368.3 435.83 1365.8 434.14 1363.5 436.98 1360.5 436 1356.9 435.61 1357.2 437.87 1353.7 436.45 1350.9 436.89 1349.7 439.64 1347.2 440.93 1349.6 440.71 1349.3 444.48 1347.3 448.39 1344.9 449.58 1341 450.25 1337.7 448.21 1334.8 446.88 1332.4 448.25 1331.3 450.87 1331.3 453.98 1330.6 456.51 1328 458.5 1325.1 459.35 1323.8 456.64 1322.7 454.33 1320.2 451.71 1317.9 448.79 1315.6 445.59 1313.3 445.37 1310.9 446.08 1307 446.52 1305 444.22 1304.8 441.42 1303.1 438.84 1300.7 439.56 1298 439.6 1295.5 437.82 1291 434.58 1294.9 431.17 1295.5 428.11 1291 428.28 1285.4 425.62 1284.1 429.84 1284 433.03 1281.5 437.2 1278.9 437.91 1276.3 438.58 1273.2 438 1272.4 435.21 1270.3 432.1 1268 431.57 1264.6 432.19 1264.4 434.5 1262 434.98 1259.2 432.23 1257.6 427.97 1257.5 425.44 1256.9 421.63 1254 418.56 1250.6 420.74 1248 422.07 1245.2 420.16 1245.2 422.65 1246.4 426.73 1246.4 429.17 1244.9 431.79 1241.9 435.47 1238.8 436.54 1236.2 433.39 1233.6 436.23 1238.1 437.51 1238.5 439.82 1233 441.82 1232.7 444.26 1233.9 448.21 1233.6 451.27 1231.1 454.29 1227.8 454.73 1225.2 453.84 1222.9 451.63 1222 449.27 1221.1 446.97 1220.2 444.66 1218.8 442.22 1220 437.82 1223.7 436.4 1223.3 433.52 1222.5 430.59 1221.2 427.22 1218.8 425.31 1216.2 425.27 1213.9 426.95 1213.4 430.37 1211.2 433.48 1208.5 431.92 1205.6 429.39 1205.2 432.68 1202.7 433.03 1202.5 430.59 1202.1 433.34 1199.7 437.96 1196.2 439.51 1193.7 439.64 1191.1 439.64 1187.9 438.18 1186.8 435.03 1188 431.79 1188.1 429.44 1186.5 426.69 1182 424.51 1177.7 426.6 1173.6 427.22 1170.8 426.86 1169.8 424.42 1170.1 421.85 1170.8 419.41 1168.3 417.23 1165.2 415.24 1160.6 413.73 1157.8 414.88 1156.4 417.94 1154.3 420.78 1151.8 421.85 1149.1 422.82 1148.5 425.44 1146.2 425.44 1146.9 428.28 1144.2 429.66 1141.8 432.1 1139 433.92 1136.4 434.98 1133.4 433.96 1130.7 432.37 1127.7 430.72 1124.8 430.64 1122.2 428.99 1122.3 425.58 1124.8 425.27 1125 421.72 1122.7 421.01 1124.8 418.65 1125.3 413.91 1123 411.64 1120.6 412.62 1116 413.46 1112.5 413.06 1109.1 412.09 1108.3 409.56 1106.2 407.2 1108.5 405.83 1105.1 403.08 1104.3 400.24 1106.4 397.71 1107.9 394.91 1106.5 392.16 1105.8 389.32 1102.3 390.74 1098.1 395.31 1093.3 394.29 1090.4 392.25 1087.4 393 1084.4 392.83 1081.9 392.25 1078.7 389.76 1073.4 389.06 1071.1 391.63 1069.6 394.25 1068.2 398.55 1065.8 399.62 1063.3 401.44 1060.5 402.59 1057.6 401.92 1054.8 399.53 1052.3 396.33 1049.4 392.47 1046.4 389.72 1042.3 388.97 1037.4 388.7 1033.9 391.63 1031.5 392.07 1028.9 392.16 1026.1 393.62 1023.7 391.98 1019.9 391.01 1017.5 388.7 1014.7 388.97 1010.8 389.99 1008.4 387.19 1005.7 385.82 1003.3 383.55 998.51 382.26 996.74 379.87 994.07 381.02 991.28 381.82 988.79 382.71 986.44 381.42 983.2 381.16 980.8 381.91 978.5 381.95 978.01 379.51 975.12 381.33 970.6 380.27 970.6 377.96 969.8 375.03 969.75 372.5 968.42 369.88 968.11 367.58 968.6 364.56 968.47 361.67 965.94 361.76 965.05 359.41 962.48 356.57 960.04 354.75 960.3 352.31 957.51 350.14 957.51 350.14 957.15 350.22 957.15 350.22 954.36 351.11 951.78 347.92 949.43 344.06 946.68 343.88 945.17 347.65 945.61 350.4 944.86 352.75 942.55 355.77 939.53 356.75 937.09 355.42 935.1 353.11 931.9 351.07 929.42 350.27 926.62 350.45 924 349.82 921.25 351.29 921.21 353.73 919.3 356.22 916.28 356.39 913.26 355.06 910.38 355.77 907.4 355.68 904.92 353.24 903.41 350.85 899.99 349.25 897.69 346.23 895.07 344.32 892.32 340.33 890.14 337.4 887.61 335.67 885.66 333.27 883.66 330.39 881.31 328.66 877.45 325.91 875.01 325.64 872.79 328.08 869.2 328.35 869.2 37.68 807.29 37.68 807.29 37.325 747.03 37.325 731.76 37.458 603.78 37.237 603.78 37.237 488.71 37.281 488.84 112.37 488.67 138.59 488.8 143.61 488.53 243.63 488.62 260.27 488.44 365.71 488.53 409.38 485.87 562.48 485.92 712.47 212.42 712.52 102.99 712.16 41.173 713.32 38.82 716.02 41.217 717.84 41.705 720.19 40.596 722.77 42.149 724.54 39.397 726.1 38.244 728.62 39.264 731.38 40.374 734.13 43.391 736.61 45.122 739.23 48.273 740.87 51.645 742.78 52.577 745.31 54.885 748.37 57.459 750.28 60.166 748.68 63.805 749.04 66.689 749.93 71.393 753.3 72.103 755.65 74.943 758.05 76.851 763.02 80.712 769.23 81.555 772.02 82.576 774.47 83.552 778.24 87.812 781.3 90.564 787.42 91.318 790.62 93.626 793.19 96.688 794.3 99.04 796.96 102.15 798.78 105.08 799.23 109.25 802.91 118.08 803.71 124.47 807.84 125.22 811.65 127.22 815.65 130.77 816.54 132.32 819.06 135.03 819.24 137.38 822.84 139.16 825.41 141.38 828.07 144.39 832.24 146.21 835.17 148.3 837.97 150.96 837.88 154.91 842.05 162.9 845.6 165.34 847.82 168.93 851.42 170.58 854.03 171.28 857.23 172.62 860.38 173.28 863 175.86 864.9 178.7 866.64 180.96 867.44 182.91 871.21 185.62 873.69 188.15 875.6 190.5 877.55 193.7 879.2 194.36 881.9 193.52 884.39 196.27 885.01 198.75 885.72 201.59 887.58 203.99 888.42 205.14 890.91 207.58 889.05 209.27 891.53 211.62 893.44 214.42 892.2 216.86 891.71 217.92 894.64 220.5 894.9 221.7 897.39 224.05 897.57 224.76 899.87 227.55 900.05 229.91 901.07 230.84 903.65 232.84 906.13 235.23 907.06 236.25 909.5 238.65 909.28 241.13 910.39 243.53 910.48 245.48 913.9 245.79 916.2 246.24 919.31 248.81 921 251.25 922.2 253.56 922.82 255.29 925.26 256.8 928.28 257.82 930.58 258.71 933.29 259.77 935.95 260.44 938.44 260.13 940.79 260.08 943.72 261.24 946.65 261.68 948.96 261.64 951.26 262.08 954.81 264.96 956.68 267.36 957.61 265.94 960.05 267.8 962.62 270.2 964.35 271.35 966.75 273.62 967.55 274.02 970.43 274.95 973.27 278.28 974.65 280.54 977.4 280.98 980.68 281.78 983.3 282.8 986.19 282.85 988.67 282.58 991.47 281.83 993.78 282.32 996.3 282.89 999.5 282.4 1002.1 280.85 1004.4 281.21 1007.3 282.14 1009.8 282.49 1012.1 283.07 1014.5 283.11 1017 284.67 1019.4 283.65 1022 283.82 1024.4 286.44 1027.5 288 1030.1 290.04 1033 292.08 1035.7 291.37 1038.1 293.68 1040.2 294.96 1042.9 296.96 1045.4 298.02 1047.9 298.82 1050.6 300.16 1053.1 300.64 1055.6 300.82 1058.2 300.82 1060.6 303.13 1062.5 304.24 1064.8 305.44 1067.1 307.88 1068 310.27 1069.8 312.31 1072.1 319.59 1078.7 321.14 1081.2 323.54 1082.3 327.49 1084.3 329.89 1084.2 332.33 1084.7 336.28 1086.7 339.21 1088 340 1090.9 342.71 1090.6 342.31 1092.9 342.58 1095.4 346.22 1098.7 347.15 1101.1 349.28 1103.6 351.63 1105.2 354.16 1107.1 356.65 1108.4 359.4 1110.9 361.79 1112.7 364.19 1114.7 366.85 1115.9 369.92 1117.1 373.29 1117.9 375.91 1118.4 379.01 1119.9 381.45 1119.5 383.85 1119.9 387.09 1120.4 389.44 1121.8 392.19 1121.6 393.97 1123.9 396.58 1124.9 396.32 1127.3 396.76 1129.6 399.51 1128.9 401.07 1131.3 402.8 1133.7 405.46 1135.1 407.81 1135.9 410.25 1136.6 412.38 1139 414.69 1138.9 417.4 1137.9 419.88 1140.2 423.21 1139.6 425.83 1140.9 428.31 1142.1 429.82 1144.5 432.35 1147 435.19 1149.9 435.02 1152.7 437.59 1152.3 439.72 1154.9 441.98 1157 444.56 1157.8 447.09 1159.1 449.75 1159.3 450.46 1156.6 453.03 1157.8 453.12 1160.2 455.61 1159.3 455.34 1162.2 458.05 1162.5 459.02 1166.1 460.53 1163.2 464.44 1165 467.1 1164.5 469.98 1165.1 473.44 1166.8 475.89 1166 479.35 1165 479.3 1162.6 481.7 1158.7 480.81 1156 483.25 1153.7 484.32 1151.3 485.92 1149 489.07 1148.1 489.51 1145.5 492.13 1143.1 492.97 1140.4 494.48 1138.1 496.34 1134.8 499.32 1135.8 501.67 1134.4 504.11 1132.8 506.55 1131.3 509.12 1130.6 510.41 1128.1 508.02 1125.8 505.66 1123.7 506.11 1121.3 507.97 1118.7 507.35 1116.3 508.37 1113.8 509.88 1109.8 513.3 1108 514.85 1104.4 517.29 1102.3 515.6 1100 515.12 1097.5 516 1094.8 516.94 1092.1 518.89 1089.7 518.04 1087.1 519.33 1083.2 521.68 1081.1 521.77 1078.5 523.72 1075.7 523.32 1073 525.68 1073.7 526.65 1071.3 526.25 1067.7 528.65 1065 530.42 1062.6 531.53 1059.7 532.73 1056.6 533.75 1053.4 536.46 1052.3 540.32 1052.4 542.76 1050.5 545.34 1050.3 548.66 1047.5 549.68 1050.4 552.21 1049.4 554.83 1047.8 554.3 1045.1 556.78 1045.4 560.29 1045.5 563.09 1046 565.79 1046.7 568.46 1047.9 570.9 1046.9 571.87 1044.1 572.36 1041.5 573.74 1037.3 575.24 1034.1 577.55 1033.2 579.99 1031.1 583.63 1033 585.94 1032.5 588.25 1033 590.07 1035.4 593.22 1036.2 596.24 1035.8 596.55 1038.7 599.61 1040.8 602.09 1042.4 604.58 1043.8 607.2 1044 609.9 1044.7 612.83 1044.9 615.5 1042.4 618.29 1042.4 620.64 1043.1 623.22 1040.7 624.81 1043.3 627.12 1042.7 627.92 1045.3 630.14 1042.9 634.62 1043.6 637.11 1041.6 639.37 1043.7 641.72 1043.9 640.88 1041.6 643.28 1042.8 644.16 1045.7 647.36 1044.3 650.46 1046 653.04 1046.8 655.48 1048.4 658.9 1048.5 661.38 1047 663.51 1049.5 665.73 1047 668.66 1046.5 672.56 1046.6 673.14 1042.9 676.38 1041 676.87 1044.5 677.8 1048.7 681.22 1048 684.23 1045 687.12 1044.5 687.21 1046.8 689.34 1050 694.26 1048.3 692.18 1050.7 694.48 1052.5 694.48 1055.5 697.64 1058.7 698.21 1062 700.88 1063.3 706.29 1065.1 706.47 1067.4 704.96 1072.3 705.14 1074.8 707.75 1076.9 709.4 1074.1 709.44 1071.7 710.5 1068.2 712.81 1069 712.59 1072 712.81 1079.2 711.48 1082.1 712.28 1084.6 715.7 1084.3 720.05 1084.6 722.66 1087.1 725.15 1091.1 727.9 1090.9 731.18 1092.1 734.51 1093 737.04 1095.5 738.73 1098.2 739.31 1101 741.75 1104 742.37 1106.5 744.72 1108.1 747.69 1110 750.53 1110.6 753.11 1113.6 756.08 1115.9 758.92 1117.8 761.1 1121.3 764.29 1123.2 767.13 1124.6 769.48 1125.7 770.99 1128.5 772.37 1131.1 773.3 1133.4 772.19 1136.7 774.23 1139.1 776.94 1141.8 780.44 1144.7 783.68 1146.1 785.37 1148.9 786.17 1151.5 786.3 1155.5 786.66 1158 787.45 1160.4 788.03 1163.2 788.12 1166.1 788.16 1168.6 787.76 1171.1 789.32 1173.5 789.63 1175.9 792.42 1177.4 795.13 1179.3 795.35 1181.8 797.57 1185.4 797.88 1188.8 800.9 1190.3 802.54 1192.8 802.14 1196 802.54 1198.8 804.89 1200.2 805.87 1202.9 805.87 1205.2 805.43 1209.1 807.2 1213.9 807.29 1214 809.91 1215.6 813.5 1217.1 813.15 1220.1 815.46 1223.2 819.54 1226.4 817.81 1230.1 819.18 1233.1 820.69 1235.5 823.93 1236.4 826.9 1237.4 826.2 1239.8 823.27 1241.4 825.35 1243.8 826.99 1246.3 827.08 1248.6 825.53 1252.3 826.51 1255 829.57 1259.1 831.25 1262.6 833.16 1265.2 833.3 1267.5 833.83 1272.1 835.78 1275.2 838.44 1277.6 842.04 1278.7 842.48 1281.9 843.24 1284.2 846.03 1284.8 849.18 1287.5 851.58 1287.5 854.29 1289.4 858.72 1291 860.28 1294.6 862.32 1297.5 863.47 1300.9 866.53 1302.4 867.24 1304.7 867.64 1307.2 868.49 1310 869.68 1312.5 872.08 1314.3 875.5 1315.2 877.72 1317.6 876.87 1320.3 878.52 1323.6 881.76 1325.9 882.51 1328.8 881.22 1331.4 882.55 1334.3 884.77 1337 885.04 1340.8 885.53 1343.6 888.68 1345.9 890.14 1348.3 892.63 1346.7 893.56 1348.9 894.71 1352.4 897.95 1352.9 899.55 1355.9 902.7 1359.9 904.08 1362.8 906.87 1364.4 909.4 1363.9 912.02 1365.6 911.93 1368.1 914.42 1368.7 917.3 1367.1 920.05 1366.9 922.09 1370 921.96 1372.4 924.93 1370.6 927.28 1374 929.73 1376.9 929.46 1379.8 929.02 1382.5 928.62 1385 928.53 1388.2 931.5 1387.7 934.12 1389.5 933.59 1393.2 932.34 1396.9 933.36 1401 932.7 1403.9 931.9 1406.8 930.84 1409.6 930.66 1412.7 927.86 1414.2 929.15 1417.2 931.68 1416.9 933.36 1419.3 934.16 1423.8 937.76 1423.2 939.13 1427.2 938.96 1430 940.2 1432.5 941 1436.3 939.58 1439.6 940.38 1442.1 940.15 1444.9 940.51 1448.5 939.98 1451 937.98 1454.6 938.82 1457.8 939.44 1460.6 942.37 1460.2 943.84 1463.1 947.26 1466.1 945.08 1468.6 945.79 1471.1 949.16 1473.4 952.14 1474.4 954.09 1476.8 954.71 1482.9 957.15 1483 957.15 1483 957.42 1483 960.74 1486.3 961.54 1490.4 964.03 1494.5 964.34 1500.9 968.2 1504.1 968.07 1508.7 969.27 1514.3 972.06 1519.7 973.39 1528.8 973.48 1532.4 976.37 1533.6 979.52 1535.3 981.25 1537.7 982.4 1540.5 982.09 1543.3 981.56 1545.6 980.14 1547.9 981.87 1550.2 984.09 1553.3 987.5 1552.6 990.34 1550.9 993.9 1553.8 997.58 1552.6 1e3 1553.6 999.84 1556.2 1002.5 1556.9 1003.9 1554 1005.5 1557 1008.2 1559.2 1010.6 1558.5 1013.9 1559 1016.3 1557.2 1018.9 1557.7 1019.9 1560.4 1020.7 1563 1023 1564.1 1025.7 1563.3 1027 1565.7 1026.6 1568.7 1029.5 1569.6 1031.9 1570.7 1029.4 1572 1031.8 1572.9 1034.6 1574.3 1034.8 1576.6 1037.6 1577.4 1040.4 1575 1043.3 1574.8 1045.9 1574.1 1048.5 1576.6 1049.5 1578.9 1051.3 1576.3 1052.5 1579 1055 1578.7 1056.4 1581.5 1059.5 1582.5 1059.2 1579.9 1061.7 1578.9 1064.4 1579.9 1063.9 1582.7 1066.3 1584.1 1069.1 1587 1071.9 1589.3 1074.7 1588.9 1077.1 1589.8 1077.5 1592.2 1079.3 1595.1 1082.2 1597.1 1083.1 1594.7 1086.2 1595.2 1083.6 1597.5 1086.1 1599.1 1088.3 1602 1092.8 1602.4 1095.4 1604.8 1097.9 1602.1 1099.5 1604.8 1101.9 1604.6 1104.5 1603.2 1107.6 1604 1110.1 1603.8 1109.5 1606.5 1111.8 1605.9 1114.6 1606.6 1115.4 1603.5 1117.9 1604.4 1120.2 1604 1122.5 1604.1 1125.6 1603.5 1128 1603.3 1130.5 1604.4 1133.6 1602.8 1136.7 1602.3 1138.3 1605 1141.2 1604.4 1143.5 1604.1 1145.8 1605.4 1146.6 1607.7 1148.9 1606.2 1149.5 1608.9 1152.6 1608 1156.4 1607.4 1158.8 1608.8 1161.7 1607.1 1161 1609.9 1164.4 1609.1 1163.6 1611.7 1166.1 1611.9 1165.2 1614.3 1167.6 1616.1 1170.2 1618.6 1172.7 1619.8 1171.6 1622.1 1175.8 1622.4 1178.2 1624.9 1178.6 1627.4 1179.3 1629.9 1182.2 1628 1182.9 1630.7 1185.2 1631.3 1187.6 1630.2 1188.9 1632.7 1190 1635.4 1193.5 1634.6 1195.3 1637.2 1197.8 1636.8 1197.5 1634.4 1199.6 1632 1198.7 1629.2 1197.6 1626.9 1200.1 1624.9 1202.8 1623.9 1205.1 1623.1 1207.5 1622.8 1209.9 1622.5 1209.9 1620 1213.9 1620.4 1216.4 1619 1218.8 1619.1 1221.1 1619 1223.6 1618.8 1226.1 1619.5 1226.2 1617.2 1233.1 1616.7 1232.8 1606.4 1233.4 1602.9 1232.7 1599.6 1231 1597.1 1230.7 1591 1229.8 1583.1 1228.9 1575.6 1225 1556.5 1221.5 1541.4 1217.8 1526.3 1216.4 1523.1 1213.1 1513.5 1209.2 1498.2 1206.9 1487.6 1205.3 1475.8 1204.4 1465.1 1204.1 1461.2 1204.1 1455.1 1204.6 1446.3 1205.3 1437.3 1205.8 1433.3 1207.4 1425.2 1208.5 1421.1 1212.4 1406.4 1213.2 1403.9 1219.6 1387.7 1223.9 1377.5 1228.9 1366.7 1238.3 1350.2 1243.4 1344.7 1246.5 1342.2 1249.6 1331.4 1252.2 1327.5 1255.9 1322.6 1260.2 1317.2 1264 1312.7 1276.3 1300.8 1289.5 1289.4 1295 1285.3 1303.2 1279.6 1316.4 1272.4 1320.2 1270.8 1322.7 1269.1 1326.5 1263.8 1327.3 1261.1 1329.5 1258.3 1332.8 1257.5 1336.2 1254.5 1337.3 1251.5 1340.2 1249.5 1346.8 1244.9 1360.1 1237.7 1369.6 1232.9 1385.3 1225.3 1397.4 1218.9 1400.9 1216.9 1427.9 1200.2 1433 1197.9 1442.2 1191.8 1444.5 1191.8 1447.5 1191.2 1450.5 1190 1454.4 1187.5 1455.9 1185 1458.3 1181.9 1463.1 1178.8 1466.3 1176.1 1468.9 1173.7 1472.1 1170.4 1479 1162.2 1481.4 1160.5 1483.6 1155.5 1483.9 1152.4 1494.7 1147 1499.3 1143.9 1505.7 1138.8 1514.7 1132.9 1523.2 1127.9 1527.1 1123.7 1530.6 1120.3 1533.2 1121.1 1536.5 1120.5 1539.5 1117.6 1541.7 1112.4 1541.2 1108.9 1538.5 1105.2 1541.6 1103 1557.3 1094.8 1567.4 1090.1 1573.5 1087.6 1604.2 1073.3 1615.6 1068.9 1631.6 1068.9 1635.4 1069.4 1637.6 1071.9 1640.3 1073.1 1643 1073.2 1641.3 1063.7 1640.2 1059.1 1635.6 1052 1633.1 1049.4 1632.5 1046.9 1629 1044.2 1628.8 1041.2 1630.6 1038.6 1634.1 1035.8 1637.9 1033 1641 1028.5 1642.7 1024.9 1643.1 1022.4 1644.4 1018.3 1646.3 1014.3 1648.9 1012.1 1652.2 1009.4 1652.7 1007 1657 1002.7 1654.4 1000.3 1655.4 997.55 1657.2 994.18 1658.2 991.34 1657 988.45 1656 985.66 1655.5 982.99 1654.8 980.29 1655.9 977.89 1656.2 975.4 1656.3 972.92 1656.7 970.48 1655 968.17 1652.2 966.53 1650.3 963.73 1649.9 961.25 1651 958.63 1650.4 955.79 1651.6 953.13 1653.8 950.6 1654.1 948.02 1656.8 947.45 1657.1 945.14 1655.8 942.12 1656.1 939.68 1655.9 937.06 1655 934.49 1652.6 932 1653.4 929.7 1653.9 926.5 1656.9 924.33 1659.2 923.79 1659.5 921.35 1659.2 918.82 1659.5 916.43 1661.1 913.9 1663.4 912.12 1665.9 910.92 1667.3 908.48 1667.8 905.73 1668.7 903.07 1668.8 900.63 1669.8 898.28 1672 895.79 1673 892.38 1674.4 889.98 1675.7 887.32 1675.2 884.79 1674.3 882.3 1673.3 879.46 1675.6 877.15 1676.9 874.58 1679.1 871.96 1678.5 869.39 1676.1 867.52 1673.7 866.15 1673.2 863.8 1673.4 861.13"/>
 </g>
</svg>
